<?xml version="1.0" encoding="utf-8"?>
<!-- Generator: Adobe Illustrator 26.0.0, SVG Export Plug-In . SVG Version: 6.00 Build 0)  -->
<svg version="1.1" id="Layer_1" xmlns="http://www.w3.org/2000/svg" xmlns:xlink="http://www.w3.org/1999/xlink" x="0px" y="0px"
	 viewBox="0 0 1509 247.6" style="enable-background:new 0 0 1509 247.6;" xml:space="preserve">
<g>
	<g>
		<path d="M217,106.4v138.9h-38.2v0.2h-75.3C47.3,245.3,1.9,199.7,1.9,143.6c0-56.1,45.4-101.7,101.5-101.9h48.8L217,106.4z
			 M164.5,128.1l-33.9-33.9h-27.1c-27.2,0.1-49.2,22.2-49.2,49.4c0,27.2,22,49.3,49.2,49.4h61L164.5,128.1z"/>
		<path d="M440.8,100.5V143h-52.5v-42.5c0-3.8-3.1-6.9-6.9-6.9h-92.6v151.9h-52.5v-152h52.3V41.1h92.8
			C414.2,41.1,440.8,67.7,440.8,100.5z"/>
		<path d="M509.5,94.6v50.5c0,26.7,21.7,48.3,48.4,48.4h12.7v52.5h-12.7C502.1,245.9,457,200.7,457,145.1V4.2h52.5v37.9h61v52.5
			H509.5z"/>
		<path d="M796.4,106v51.7h-52.5v-29.9l-33.9-33.9h-27.1c-17.7-0.1-34.1,9.3-43,24.6c-8.9,15.3-8.9,34.2,0,49.6
			c8.9,15.3,25.3,24.7,43,24.6h43.4v52.5h-43.4c-36.5,0.1-70.3-19.3-88.6-50.8c-18.3-31.6-18.3-70.5,0-102.1
			c18.3-31.6,52.1-51,88.6-50.8h48.8L796.4,106z"/>
		<path d="M864.4,99.3h60.2v52.5h-60.3v94h-52.5V102.9C811.8,47.2,856.9,2.1,912.6,2h12.7v52.5h-12.7
			C887.3,54.5,866.2,74.1,864.4,99.3z"/>
		<path d="M1153.3,106.4v138.9h-38.2v0.2h-75.3c-56.1-0.2-101.5-45.8-101.5-101.9c0-56.1,45.4-101.7,101.5-101.9h48.8L1153.3,106.4z
			 M1100.8,128.1l-33.9-33.9h-27.1c-27.2,0.1-49.2,22.2-49.2,49.4c0,27.2,22,49.3,49.2,49.4h61L1100.8,128.1z"/>
		<path d="M1308.5,245.5l-82.7-57.6v57.3h-52.5V41.7h52.5v58l82.8-58.2h70.6v11.2l-129.6,91.1l129.1,90v11.7H1308.5z"/>
		<path d="M1444,94.6v50.5c0,26.7,21.7,48.3,48.4,48.4h12.7v52.5h-12.7c-55.7-0.1-100.8-45.2-100.9-100.9V4.2h52.5v37.9h61v52.5
			H1444z"/>
	</g>
</g>
</svg>
