<?xml version="1.0" encoding="utf-8"?>
<!-- Generator: Adobe Illustrator 26.0.0, SVG Export Plug-In . SVG Version: 6.00 Build 0)  -->
<svg version="1.1" id="Layer_1" xmlns="http://www.w3.org/2000/svg" xmlns:xlink="http://www.w3.org/1999/xlink" x="0px" y="0px"
	 viewBox="0 0 1509 247.6" style="enable-background:new 0 0 1509 247.6;" xml:space="preserve">
<style type="text/css">
	.st0{fill:#020202;}
</style>
<g>
	<path class="st0" d="M218.3,106v141h-38.8v0.2h-76.5C45.9,247-0.2,200.6-0.1,143.4c0.2-56.9,46.3-103,103.1-103.1h49.6L218.3,106z
		 M165,128l-34.5-34.5h-27.5c-27.7,0.2-50,22.8-49.8,50.5c0.2,27.5,22.4,49.7,49.8,49.8H165L165,128z"/>
	<path class="st0" d="M444.6,100v43.1h-53.3V100c0-3.9-3.1-7-7-7h-94v154.2h-53.3V92.9h53.1V39.7h94.2
		C417.6,39.7,444.6,66.7,444.6,100z"/>
	<path class="st0" d="M509.3,94v51.2c0,27.1,22,49.1,49.1,49.1h12.9v53.3h-12.9C501.8,247.6,456,201.8,456,145.2V2.2h53.3v38.5h61.9
		V94L509.3,94z"/>
	<path class="st0" d="M800.5,105.5V158h-53.3v-30.4l-34.5-34.5h-27.5c-27.7-0.1-50.3,22.2-50.4,49.9c-0.1,27.7,22.2,50.3,49.9,50.4
		c0.1,0,0.3,0,0.4,0h44.1v53.3h-44.1c-57.1,0.3-103.7-45.9-103.9-103s45.9-103.7,103-103.9c0.3,0,0.6,0,0.9,0h49.6L800.5,105.5z"/>
	<path class="st0" d="M867.6,98.8h61.1v53.3h-61.2v95.4h-53.3V102.4C814.2,45.9,860,0.1,916.5,0h12.9v53.3h-12.9
		C890.8,53.3,869.5,73.2,867.6,98.8z"/>
	<path class="st0" d="M1154.9,106v141h-38.8v0.2h-76.5c-57.1-0.2-103.3-46.6-103.1-103.8c0.2-56.9,46.3-103,103.1-103.1h49.6
		L1154.9,106z M1101.6,128l-34.5-34.5h-27.5c-27.7,0.2-50,22.8-49.8,50.5c0.2,27.5,22.4,49.7,49.8,49.8h61.9L1101.6,128z"/>
	<path class="st0" d="M1314.4,247.2l-84-58.5v58.2h-53.3V40.3h53.3v58.9l84-59.1h71.7v11.3l-131.6,92.5l131.1,91.4v11.9H1314.4z"/>
	<path class="st0" d="M1447,94v51.2c0,27.1,22,49.1,49.1,49.1h12.9v53.3h-12.9c-56.5-0.1-102.3-45.9-102.4-102.4V2.2h53.3v38.5h61.9
		V94L1447,94z"/>
</g>
</svg>
