<?xml version="1.0" encoding="utf-8"?>
<!-- Generator: Adobe Illustrator 26.0.0, SVG Export Plug-In . SVG Version: 6.00 Build 0)  -->
<svg version="1.1" id="Layer_1" xmlns="http://www.w3.org/2000/svg" xmlns:xlink="http://www.w3.org/1999/xlink" x="0px" y="0px"
	 viewBox="0 0 2198.3 2423.1" style="enable-background:new 0 0 2198.3 2423.1;" xml:space="preserve">
<style type="text/css">
	.st0{fill:#BBBBBB;}
</style>
<path class="st0" d="M2049.4,532.1L1212.5,49c-62.4-36-164.4-36-226.7,0L148.9,532.1c-62.4,36-113.4,124.4-113.4,196.4v966.2
	c0,72,51,160.4,113.4,196.4l836.9,483.1c62.4,36,164.4,36,226.7,0l836.9-483.1c62.4-36,113.4-124.4,113.4-196.4V728.4
	C2162.7,656.4,2111.7,568.1,2049.4,532.1z M627.5,1184v468.8H473.1V1184c0-120.7,98.2-219,219-219h768.6v154.4H692.1
	C656.4,1119.4,627.5,1148.4,627.5,1184z M1718.9,1646.8H936.3c-112.1,0-203.2-91.2-203.2-203.2v-215.1h778.3
	c26.9,0,48.9-21.9,48.9-48.9V908.3c0-26.9-21.9-48.9-48.9-48.9h-1032V705.1h1032c112.1,0,203.2,91.2,203.2,203.2v271.2
	c0,112.1-91.2,203.2-203.2,203.2H887.4v60.8c0,26.9,21.9,48.9,48.9,48.9h782.6V1646.8z"/>
</svg>
