<?xml version="1.0" encoding="utf-8"?>
<!-- Generator: Adobe Illustrator 26.0.0, SVG Export Plug-In . SVG Version: 6.00 Build 0)  -->
<svg version="1.1" id="Layer_1" xmlns="http://www.w3.org/2000/svg" xmlns:xlink="http://www.w3.org/1999/xlink" x="0px" y="0px"
	 viewBox="0 0 512 512" style="enable-background:new 0 0 512 512;" xml:space="preserve">
<g>
	<path d="M433.51181,72.020515c-64.165558-61.315063-165.886963-59.002628-227.200668,5.162956
		c-39.933151,41.790558-50.00531,89.046448-39.297562,151.61409c2.496628,14.588425-0.192154,29.549973-10.6577,40.015518
		l-0.420547,0.420502c-7.426254,7.4263-16.994324,10.324615-27.935745,11.905823
		c-30.739418,4.442322-61.396461,15.665039-80.735397,43.109924C16.276165,368.226013,25.17779,429.410461,67.464806,462.667297
		c45.596413,35.859528,111.412926,26.410126,145.20517-20.083496c11.242493-15.468842,16.5448-33.148132,19.025116-50.798279
		c1.686157-11.99881,6.106064-23.319031,14.632019-31.844971l0.000046-0.000061
		c12.022537-12.022522,29.227676-17.111511,45.928909-13.925171c51.758179,9.874664,107.307037-5.862091,146.420044-46.794128
		C499.989838,235.055618,497.678741,133.334244,433.51181,72.020515z"/>
	<circle cx="73.351257" cy="173.20932" r="43.988216"/>
</g>
</svg>
