<?xml version="1.0" encoding="utf-8"?>
<!-- Generator: Adobe Illustrator 26.0.0, SVG Export Plug-In . SVG Version: 6.00 Build 0)  -->
<svg version="1.1" id="Layer_1" xmlns="http://www.w3.org/2000/svg" xmlns:xlink="http://www.w3.org/1999/xlink" x="0px" y="0px"
	 viewBox="0 0 558.8 558.8" style="enable-background:new 0 0 558.8 558.8;" xml:space="preserve">
<g>
	<g>
		<path d="M417.6,97.4c-46.9-44.8-121.2-43.1-166.1,3.8c-29.2,30.5-36.5,65.1-28.7,110.8c1.8,10.7-0.1,21.6-7.8,29.2l-0.3,0.3
			c-5.4,5.4-12.4,7.5-20.4,8.7c-22.5,3.2-44.9,11.4-59,31.5c-22.6,32.1-16.1,76.9,14.8,101.2c33.3,26.2,81.4,19.3,106.1-14.7
			c8.2-11.3,12.1-24.2,13.9-37.1c1.2-8.8,4.5-17,10.7-23.3l0,0c8.8-8.8,21.4-12.5,33.6-10.2c37.8,7.2,78.4-4.3,107-34.2
			C466.2,216.6,464.5,142.2,417.6,97.4z"/>
		<circle cx="136.2" cy="166.8" r="32.2"/>
	</g>
	<g>
		<g>
			<path d="M138.7,456.7v37h-10.2v0.1h-20.1c-15-0.1-27.1-12.2-27.1-27.2c0-15,12.1-27.1,27.1-27.2h13L138.7,456.7z M124.7,462.5
				l-9-9h-7.2c-7.2,0-13.1,5.9-13.1,13.2c0,7.2,5.9,13.1,13.1,13.2h16.3L124.7,462.5z"/>
			<path d="M198.1,455.1v11.3h-14v-11.3c0-1-0.8-1.8-1.8-1.8h-24.7v40.5h-14v-40.5h13.9v-14h24.7C191,439.3,198,446.4,198.1,455.1z"
				/>
			<path d="M215,453.6V467c0,7.1,5.8,12.9,12.9,12.9h3.4v14h-3.4c-14.8,0-26.9-12-26.9-26.9v-37.5h14v10.1h16.3v14H215z"/>
			<path d="M291.5,456.6v13.8h-14v-8l-9-9h-7.2c-4.7,0-9.1,2.5-11.5,6.6c-2.4,4.1-2.4,9.1,0,13.2c2.4,4.1,6.7,6.6,11.5,6.6h11.6v14
				h-11.6c-9.7,0-18.7-5.1-23.6-13.5c-4.9-8.4-4.9-18.8,0-27.2c4.9-8.4,13.9-13.6,23.6-13.5h13L291.5,456.6z"/>
			<path d="M309.1,454.8h16v14H309v25h-14v-38.1c0-14.8,12-26.9,26.9-26.9h3.4v14h-3.4C315.2,442.9,309.6,448.1,309.1,454.8z"/>
			<path d="M384.5,456.7v37h-10.2v0.1h-20.1c-15-0.1-27.1-12.2-27.1-27.2c0-15,12.1-27.1,27.1-27.2h13L384.5,456.7z M370.5,462.5
				l-9-9h-7.2c-7.2,0-13.1,5.9-13.1,13.2c0,7.2,5.9,13.1,13.1,13.2h16.3L370.5,462.5z"/>
			<path d="M426.4,493.8l-22-15.4v15.3h-14v-54.2h14v15.4l22.1-15.5h18.8v3l-34.5,24.3l34.4,24v3.1H426.4z"/>
			<path d="M461.2,453.6V467c0,7.1,5.8,12.9,12.9,12.9h3.4v14h-3.4c-14.8,0-26.9-12-26.9-26.9v-37.5h14v10.1h16.3v14H461.2z"/>
		</g>
	</g>
</g>
</svg>
