<?xml version="1.0" encoding="utf-8"?>
<!-- Generator: Adobe Illustrator 26.0.0, SVG Export Plug-In . SVG Version: 6.00 Build 0)  -->
<svg version="1.1" id="Layer_1" xmlns="http://www.w3.org/2000/svg" xmlns:xlink="http://www.w3.org/1999/xlink" x="0px" y="0px"
	 viewBox="0 0 558.78479 558.78479" style="enable-background:new 0 0 558.78479 558.78479;" xml:space="preserve">
<g>
	<g>
		<path d="M417.615112,188.853806c-46.898254-44.81485-121.24588-43.124695-166.059708,3.773575
			c-29.18692,30.544479-36.548615,65.083557-28.722382,110.813904c1.824783,10.662598-0.140442,21.5979-7.789642,29.247101
			l-0.307388,0.307343c-5.427795,5.427856-12.421051,7.546204-20.418076,8.701904
			c-22.46727,3.246887-44.874329,11.449493-59.009048,31.50882c-22.648979,32.142303-16.14283,76.861694,14.764511,101.168915
			c33.326172,26.209534,81.431091,19.303009,106.129654-14.678925c8.217072-11.306091,12.092499-24.227783,13.905365-37.128174
			c1.232391-8.769867,4.462891-17.043732,10.694458-23.275299l0.000031-0.000061
			c8.787201-8.787201,21.362335-12.506714,33.569183-10.177826c37.829773,7.217346,78.430115-4.284576,107.017609-34.201569
			C466.203522,308.015259,464.514374,233.667664,417.615112,188.853806z"/>
		<circle cx="136.222961" cy="258.273926" r="32.150745"/>
	</g>
	<g>
		<path d="M100.185326,125.834244l14.069527-57.378548h14.933823l14.226807,57.378548h-12.025925l-2.751099-12.969093h-13.676575
			l-2.750626,12.969093H100.185326z M116.927078,103.433044h9.667786l-2.751091-13.833855
			c-0.367119-1.990562-0.746689-3.969131-1.139641-5.934326c-0.392944-1.964737-0.69503-3.49778-0.903961-4.598221
			c-0.209846,1.100441-0.484726,2.621033-0.825096,4.559021c-0.341286,1.939362-0.720863,3.904099-1.139633,5.895126
			L116.927078,103.433044z"/>
		<path d="M148.524246,125.834244V68.455696h18.47081c4.087204,0,7.624649,0.707489,10.61142,2.122009
			c2.986771,1.41497,5.305237,3.432747,6.955902,6.052391c1.65065,2.621033,2.476212,5.712029,2.476212,9.274841
			c0,3.721466-0.903961,7.048599-2.711899,9.982323c-1.807922,2.935577-4.257843,5.057579-7.349304,6.366943l10.847092,23.58004
			H175.01265l-9.274826-21.69371h-5.502182v21.69371H148.524246z M160.235641,93.922531h6.759415
			c2.619659,0,4.649872-0.654915,6.091614-1.965195c1.440796-1.309364,2.161667-3.144035,2.161667-5.502182
			c0-2.462372-0.720871-4.374535-2.161667-5.737854c-1.441742-1.361938-3.471954-2.043602-6.091614-2.043602h-6.759415V93.922531z"
			/>
		<path d="M206.29483,125.834244V79.066643h-14.541351V68.455696h40.872482v10.610947H218.08461v46.767601H206.29483z"/>
		<path d="M240.092407,125.834244V68.455696h35.370758v10.218002H251.64653v12.890686h21.065079v9.746651H251.64653v14.305206
			h23.816635v10.218002H240.092407z"/>
		<path d="M284.500946,125.834244V68.455696h36.942535v11.003899h-25.310028v12.733414h23.265961v11.004356h-23.108215v22.636879
			H284.500946z"/>
		<path d="M353.275879,125.834244v-10.532547h-25.152283V98.874031l21.536438-30.418335h12.969086l-23.502106,33.719643v2.908356
			h14.148865V92.82209h11.789337v33.012154H353.275879z"/>
		<path d="M374.497772,125.834244V68.455696h11.790253v22.558472h5.502197l9.58844-22.558472h12.733887l-11.947052,27.195892
			l12.418396,30.182655h-12.890686l-9.824585-24.602074h-5.580597v24.602074H374.497772z"/>
		<path d="M432.268341,125.834244V79.066643h-14.541779V68.455696h40.872925v10.610947h-14.540894v46.767601H432.268341z"/>
	</g>
</g>
</svg>
